<?xml version="1.0" standalone="no"?>
<!DOCTYPE svg PUBLIC "-//W3C//DTD SVG 20010904//EN"
 "http://www.w3.org/TR/2001/REC-SVG-20010904/DTD/svg10.dtd">
<svg version="1.0" xmlns="http://www.w3.org/2000/svg"
 width="500.000000pt" height="500.000000pt" viewBox="0 0 500.000000 500.000000"
 preserveAspectRatio="xMidYMid meet">
<metadata>
Created by potrace 1.14, written by Peter Selinger 2001-2017
</metadata>
<g transform="translate(0.000000,500.000000) scale(0.100000,-0.100000)"
fill="#000000" stroke="none">
<path d="M3142 3250 c-246 -26 -390 -86 -622 -259 -58 -44 -190 -170 -190
-182 0 -9 133 -40 310 -73 477 -88 638 -136 814 -240 167 -99 218 -190 171
-302 -32 -78 -225 -238 -295 -246 l-25 -3 -3 195 c-3 189 -2 196 19 213 12 9
30 17 40 17 16 0 19 8 19 43 l0 44 -108 11 c-110 12 -258 48 -337 82 l-44 19
-43 -24 c-24 -13 -74 -34 -113 -46 -118 -37 -172 -68 -229 -129 -77 -84 -101
-137 -100 -230 1 -165 50 -249 192 -322 51 -26 104 -48 119 -48 15 0 98 26
185 57 l159 56 37 -35 c20 -20 56 -46 78 -57 41 -22 41 -22 90 -2 160 63 499
244 552 294 36 33 80 135 92 210 20 130 -16 245 -103 328 -65 62 -246 170
-360 213 -109 42 -461 150 -547 168 -33 6 -60 15 -60 19 0 10 98 38 190 55
140 25 314 13 469 -32 64 -18 118 -67 127 -113 4 -17 8 -31 11 -31 10 0 288
264 288 274 0 15 -81 43 -182 61 -103 19 -473 28 -601 15z m-172 -899 l45 -17
3 -170 2 -170 -67 -24 c-91 -33 -176 -34 -220 -2 -45 32 -55 76 -51 214 3 111
4 118 33 159 17 24 42 46 55 49 27 7 129 -13 200 -39z"/>
<path d="M1280 3165 c-41 -37 -110 -97 -154 -134 l-78 -66 96 -5 c71 -4 99 -9
107 -20 6 -9 7 -89 4 -210 -14 -479 -27 -764 -35 -786 -5 -13 -39 -45 -75 -71
-36 -25 -65 -50 -65 -55 0 -4 104 -8 230 -8 225 0 230 0 230 20 0 12 -10 29
-22 40 -13 11 -40 35 -61 55 l-39 35 7 457 c4 252 9 461 12 465 6 11 69 -17
132 -58 125 -83 209 -183 366 -435 222 -358 329 -511 402 -580 70 -66 134 -99
191 -99 24 0 23 2 -15 43 -73 79 -124 186 -162 340 -42 166 -51 275 -51 630
l0 338 24 24 c13 13 37 27 53 30 55 13 55 12 30 52 l-24 38 -189 3 -189 2 -33
-42 -33 -43 40 -7 c44 -7 82 -25 93 -42 11 -17 10 -166 -2 -166 -10 0 -84 44
-205 122 -159 103 -347 181 -463 194 -46 5 -48 5 -122 -61z"/>
</g>
</svg>
